
<svg width="800" height="300"
xmlns="http://www.w3.org/2000/svg">


<defs>

<filter id="glow">
<feGaussianBlur stdDeviation="5" result="blur"/>
<feMerge>
<feMergeNode in="blur"/>
<feMergeNode in="SourceGraphic"/>
</feMerge>
</filter>


<radialGradient id="core">
<stop offset="0%" stop-color="#ffffff"/>
<stop offset="40%" stop-color="#ff4fd8"/>
<stop offset="100%" stop-color="#7209b7"/>
</radialGradient>


</defs>



<rect width="100%" height="100%" fill="#070011"/>



<!-- grid -->

<g stroke="#24104a" opacity="0.5">

<line x1="0" y1="0" x2="0" y2="300"/><line x1="40" y1="0" x2="40" y2="300"/><line x1="80" y1="0" x2="80" y2="300"/><line x1="120" y1="0" x2="120" y2="300"/><line x1="160" y1="0" x2="160" y2="300"/><line x1="200" y1="0" x2="200" y2="300"/><line x1="240" y1="0" x2="240" y2="300"/><line x1="280" y1="0" x2="280" y2="300"/><line x1="320" y1="0" x2="320" y2="300"/><line x1="360" y1="0" x2="360" y2="300"/><line x1="400" y1="0" x2="400" y2="300"/><line x1="440" y1="0" x2="440" y2="300"/><line x1="480" y1="0" x2="480" y2="300"/><line x1="520" y1="0" x2="520" y2="300"/><line x1="560" y1="0" x2="560" y2="300"/><line x1="600" y1="0" x2="600" y2="300"/><line x1="640" y1="0" x2="640" y2="300"/><line x1="680" y1="0" x2="680" y2="300"/><line x1="720" y1="0" x2="720" y2="300"/><line x1="760" y1="0" x2="760" y2="300"/><line x1="0" y1="0" x2="800" y2="0"/><line x1="0" y1="40" x2="800" y2="40"/><line x1="0" y1="80" x2="800" y2="80"/><line x1="0" y1="120" x2="800" y2="120"/><line x1="0" y1="160" x2="800" y2="160"/><line x1="0" y1="200" x2="800" y2="200"/><line x1="0" y1="240" x2="800" y2="240"/><line x1="0" y1="280" x2="800" y2="280"/>

</g>



<text x="35" y="45"
font-family="monospace"
font-size="30"
fill="#ff4fd8">

NEURAL CORE // ONLINE

</text>


<text x="35" y="75"
font-family="monospace"
font-size="15"
fill="white">

AI SYSTEM SIMULATION

</text>



<!-- connections -->

<g stroke="#00ffff" opacity="0.45">


            <line x1="150" y1="180"
            x2="150" y2="120"/>
            
            <line x1="150" y1="180"
            x2="250" y2="200"/>
            
            <line x1="250" y1="100"
            x2="250" y2="100"/>
            
            <line x1="250" y1="100"
            x2="650" y2="180"/>
            
            <line x1="250" y1="150"
            x2="650" y2="120"/>
            
            <line x1="250" y1="200"
            x2="150" y2="180"/>
            
            <line x1="250" y1="200"
            x2="550" y2="200"/>
            
            <line x1="550" y1="100"
            x2="150" y2="120"/>
            
            <line x1="550" y1="100"
            x2="550" y2="200"/>
            
            <line x1="550" y1="150"
            x2="150" y2="120"/>
            
            <line x1="550" y1="150"
            x2="150" y2="180"/>
            
            <line x1="650" y1="120"
            x2="250" y2="100"/>
            
            <line x1="650" y1="180"
            x2="150" y2="180"/>
            
            <line x1="650" y1="180"
            x2="550" y2="100"/>
            
            <line x1="650" y1="180"
            x2="550" y2="150"/>
            </g>
    <circle cx="150" cy="120"
    r="10"
    fill="#ff4fd8"
    filter="url(#glow)"/>
    
    <circle cx="150" cy="180"
    r="10"
    fill="#ff4fd8"
    filter="url(#glow)"/>
    
    <circle cx="250" cy="100"
    r="10"
    fill="#ff4fd8"
    filter="url(#glow)"/>
    
    <circle cx="250" cy="150"
    r="10"
    fill="#ff4fd8"
    filter="url(#glow)"/>
    
    <circle cx="250" cy="200"
    r="10"
    fill="#ff4fd8"
    filter="url(#glow)"/>
    
    <circle cx="550" cy="100"
    r="10"
    fill="#ff4fd8"
    filter="url(#glow)"/>
    
    <circle cx="550" cy="150"
    r="10"
    fill="#ff4fd8"
    filter="url(#glow)"/>
    
    <circle cx="550" cy="200"
    r="10"
    fill="#ff4fd8"
    filter="url(#glow)"/>
    
    <circle cx="650" cy="120"
    r="10"
    fill="#ff4fd8"
    filter="url(#glow)"/>
    
    <circle cx="650" cy="180"
    r="10"
    fill="#ff4fd8"
    filter="url(#glow)"/>
    

<circle cx="400" cy="150"
r="45"
fill="url(#core)"
filter="url(#glow)">

<animate attributeName="r"
values="40;48;40"
dur="2s"
repeatCount="indefinite"/>

</circle>



<text x="380" y="155"
font-family="monospace"
font-size="18"
fill="#070011">

AI

</text>



<text x="35" y="250"
font-family="monospace"
font-size="16"
fill="#00ffff">

STATUS: LEARNING

</text>



<text x="35" y="275"
font-family="monospace"
font-size="14"
fill="white">

LOSS: 0.0321 ↓   ACCURACY: 98.7%

</text>



<text x="570" y="275"
font-family="monospace"
font-size="12"
fill="#ff4fd8">

UPDATED 2026-07-14

</text>


</svg>
